<svg version="1.1" id="mlabs_logo" xmlns="http://www.w3.org/2000/svg" x="0px" y="0px" viewBox="0 0 1877.9 263.2" height="30"><g fill="#000"><path d="M151.7,122.2c0,0,22.5-14.2,40.2-25.1C264.3,52.6,343.7,24,343.7,24L310.6,7.2c0,0-60.7,20.2-128.2,84.6 C163.3,109.9,151.7,122.2,151.7,122.2z"></path><path d="M1128.1,257.4H946.8V8.5h39.5V218h141.9V257.4z"></path><path d="M1375.7,257.4l-25.6-59.8h-117.7l-25.3,59.8h-43.4l59-138.7h43.4l-16.4,38.4h83.2 c-39.8-93.4-60.9-143-63.3-148.7h43.4l106,249H1375.7z"></path><path d="M1454.6,257.4V218h125.2c9,0,16.7-3.2,23.1-9.6c6.4-6.4,9.6-14.1,9.6-23.1c0-9-3.2-16.7-9.6-23.1 c-6.4-6.4-14.1-9.6-23.1-9.6h-125.2v-39.1h115.6h9.6c9,0,16.7-3.2,23.1-9.6c6.4-6.4,9.6-14.1,9.6-23.1c0-9-3.2-16.7-9.6-23.1 c-6.4-6.4-14.1-9.6-23.1-9.6h-125.2V8.5h124.8c19.9,0,36.9,7.1,51,21.2c14.1,14.1,21.2,31.1,21.2,51c0,20.6-7.6,38.1-22.8,52.3 c15.2,14.2,22.8,31.7,22.8,52.3c0,19.9-7.1,36.9-21.2,51c-14.1,14.1-31.1,21.2-51,21.2H1454.6z"></path><path d="M1867.2,31.2l-25.6,30.6c-19.2-15.9-39.6-23.1-61.2-21.7c-7.6,0.7-14.5,2.5-20.6,5.3 c-5.7,2.6-10.4,6.2-14.2,10.7c-5.5,6.6-7.9,14.7-7.5,24.2c0.7,3.8,2.4,7.4,5.2,10.7c2.7,3.3,5.6,6,8.5,8.2c3,2.1,7.3,4.3,13,6.6 c5.7,2.3,10.4,3.9,14,5c3.7,1.1,9.1,2.7,16.2,4.8c11.6,3.3,20.5,6,26.5,8c6,2,13.6,5.3,22.6,10c9,4.6,15.7,9.5,19.9,14.8 c4.3,5.2,7.8,12.2,10.7,20.8c2.8,8.7,3.8,18.7,2.8,30.1v0.4c-1.7,12.6-6.4,23.8-14.2,33.8c-9.5,11.6-22.3,20-38.4,25.3 c-15.4,4.7-32,5.9-49.8,3.6c-30.8-3.8-60.1-16.8-87.8-39.1l24.9-30.9c21.8,17.3,44.3,27.4,67.6,30.2c12.3,1.7,23.4,0.9,33.1-2.1 c8.5-2.6,14.9-6.6,19.2-12.1c3.1-3.8,5-8.2,5.7-13.2c0.2-4.7-0.7-9.1-2.7-13c-2-3.9-4.4-7.1-7.1-9.6c-2.7-2.5-7-5-12.8-7.5 c-5.8-2.5-10.6-4.4-14.4-5.7c-3.8-1.3-9.4-3-16.9-5.2c-7.5-2.1-13.1-3.8-16.9-5c-3.8-1.2-9.1-3-15.8-5.5c-6.8-2.5-12-4.8-15.6-6.9 c-3.7-2.1-8-5-13-8.5c-5-3.6-8.8-7.3-11.6-11.2c-2.7-3.9-5.3-8.7-7.6-14.2c-2.4-5.6-4-11.6-5-18v-1.4c-1.4-20.1,4.1-37.8,16.7-53 c7.3-8.8,16.6-15.8,27.7-21c10.9-5,22.5-7.9,34.9-8.9c9.7-0.7,19.6-0.1,29.5,1.8c10,1.9,20.1,5.3,30.6,10.1 C1848.1,17.1,1858,23.4,1867.2,31.2z"></path></g><g fill="#f00"><path d="M708.8,8.5l64,146.2l64-146.2h64.4v249h-39.5V49.7l-88.9,203.4L683.5,49H644V8.5H708.8z M683.5,257.4H644v-143 h39.5V257.4z"></path><path d="M0,258.8c0,0,71.3-35.5,118.1-56.4c206-92.2,321.1-76.9,321.1-76.9l98.9-110.2c0,0-130-15.7-339.1,106.6 C115.3,170.8,0,258.8,0,258.8z"></path></g></svg>